{"title":"Rose and Maloney S03","uid":10817992,"size":2336575817,"categoryP":"video","categoryS":"tv_shows","magnet":"?xt=urn:btih:1197a7cb02d37a98856543686c92b838be051391&amp;dn=Rose+and+Maloney+S03&amp;tr=udp%3A%2F%2Ftracker.openbittorrent.com%3A80&amp;tr=udp%3A%2F%2Fopen.demonii.com%3A1337&amp;tr=udp%3A%2F%2Ftracker.coppersurfer.tk%3A6969&amp;tr=udp%3A%2F%2Fexodus.desync.com%3A6969","seeders":2,"leechers":1,"uploader":"RedBaron58","files":3,"time":1408485101,"description":"Rose and Maloney S03 - Crime Drama x264 mp4 \n &lt;a href=&quot;\nhttp://www.imdb.com/title/tt0338655/&quot; rel=&quot;nofollow&quot; target=&quot;_NEW&quot;&gt;\nhttp://www.imdb.com/title/tt0338655/&lt;/a&gt;\n\nTrailer (S01)\n\n\nThank you for your kind comments and thumbs ups on my other torrents, your feedback is welcome.\n\n\nAbout the Series:\nA series of three episodes.\n\nRose Linden(Sarah Lancashire) and Maloney(Phil Davis) work with the fictional Criminal Justice Review Agency,\nan organization which seeks out miscarriages of justice. Rose is brilliant but strong-willed and sometimes \nreckless. She likes to follow her instincts and play hunches and often comes into conflict with authority. \nMaloney, although Rose's superior, usually allows himself to be led by his more passionate colleague. \nMaloney is a by-the-book man and a little grey. He finds working with Rose dangerous but addictively \nexciting.\n\nUploader Note : Minor Encode problem on Episode 2 lasting a couple of seconds and recovers.\n\nI hope you enjoy.\n\n\nTechnical: (All Episodes encoded to the same settings)\n\nGeneral\nComplete name                            : H:Rose and Maloney S03Rose and Maloney S03E01 x264 RB58.mp4\nFormat                                   : MPEG-4\nFormat profile                           : Base Media\nCodec ID                                 : isom\nFile size                                : 733 MiB\nDuration                                 : 1h 7mn\nOverall bit rate                         : 1 520 Kbps\nWriting application                      : Lavf54.63.104\n\nVideo\nID                                       : 1\nFormat                                   : AVC\nFormat/Info                              : Advanced Video Codec\nFormat profile                           : &lt;a class=&quot;__cf_email__&quot; href=&quot;/cdn-cgi/l/email-protection&quot; data-cfemail=&quot;5f173638371f136c716f&quot;&gt;[email&amp;#160;protected]&lt;/a&gt;&lt;script cf-hash='f9e31' type=&quot;text/javascript&quot;&gt;\n/* &lt;![CDATA[ */!function(){try{var t=&quot;currentScript&quot;in document?document.currentScript:function(){for(var t=document.getElementsByTagName(&quot;script&quot;),e=t.length;e--;)if(t[e].getAttribute(&quot;cf-hash&quot;))return t[e]}();if(t&amp;&amp;t.previousSibling){var e,r,n,i,c=t.previousSibling,a=c.getAttribute(&quot;data-cfemail&quot;);if(a){for(e=&quot;&quot;,r=parseInt(a.substr(0,2),16),n=2;a.length-n;n+=2)i=parseInt(a.substr(n,2),16)^r,e+=String.fromCharCode(i);e=document.createTextNode(e),c.parentNode.replaceChild(e,c)}}}catch(u){}}();/* ]]&gt; */&lt;/script&gt;\nFormat settings, CABAC                   : Yes\nFormat settings, ReFrames                : 4 frames\nCodec ID                                 : avc1\nCodec ID/Info                            : Advanced Video Coding\nDuration                                 : 1h 7mn\nBit rate                                 : 1 400 Kbps\nWidth                                    : 832 pixels\nHeight                                   : 468 pixels\nDisplay aspect ratio                     : 16:9\nFrame rate mode                          : Variable\nFrame rate                               : 25.000 fps\nMinimum frame rate                       : 12.500 fps\nMaximum frame rate                       : 25.000 fps\nColor space                              : YUV\nChroma subsampling                       : 4:2:0\nBit depth                                : 8 bits\nScan type                                : Progressive\nBits/(Pixel*Frame)                       : 0.144\nStream size                              : 675 MiB (92%)\nWriting library                          : x264 core 123 r2189 35cf912\nEncoding settings                        : cabac=1 / ref=3 / deblock=1:0:0\n\nAudio\nID                                       : 2\nFormat                                   : AAC\nFormat/Info                              : Advanced Audio Codec\nFormat profile                           : LC\nCodec ID                                 : 40\nDuration                                 : 1h 7mn\nBit rate mode                            : Constant\nBit rate                                 : 111 Kbps\nChannel(s)                               : 2 channels\nChannel positions                        : Front: L R\nSampling rate                            : 48.0 KHz\nCompression mode                         : Lossy\nStream size                              : 53.5 MiB (7%)\nLanguage                                 : English","torrent":{"xt":"urn:btih:1197a7cb02d37a98856543686c92b838be051391","amp;dn":"Rose+and+Maloney+S03","amp;tr":["udp%3A%2F%2Ftracker.openbittorrent.com%3A80","udp%3A%2F%2Fopen.demonii.com%3A1337","udp%3A%2F%2Ftracker.coppersurfer.tk%3A6969","udp%3A%2F%2Fexodus.desync.com%3A6969"],"infoHash":"1197a7cb02d37a98856543686c92b838be051391","infoHashBuffer":{"type":"Buffer","data":[17,151,167,203,2,211,122,152,133,101,67,104,108,146,184,56,190,5,19,145]},"announce":[],"urlList":[]}}